<?xml version="1.0" encoding="iso-8859-1"?>
<!-- Uploaded to: SVG Repo, www.svgrepo.com, Generator: SVG Repo Mixer Tools -->
<!DOCTYPE svg PUBLIC "-//W3C//DTD SVG 1.1//EN" "http://www.w3.org/Graphics/SVG/1.1/DTD/svg11.dtd">
<svg fill="#000000" version="1.1" id="Capa_1" xmlns="http://www.w3.org/2000/svg" xmlns:xlink="http://www.w3.org/1999/xlink" 
	 width="800px" height="800px" viewBox="0 0 57.828 57.827"
	 xml:space="preserve">
<g>
	<g>
		<circle cx="24.87" cy="13.811" r="13.811"/>
		<path d="M6.972,52.484l9.718,2.56c4.215,1.109,11.004,0.979,15.173-0.293l3.93-1.205c2.209,2.614,5.505,4.281,9.188,4.281
			c6.633,0,12.03-5.397,12.03-12.03c0-6.635-5.397-12.032-12.03-12.032c-1.124,0-2.207,0.167-3.239,0.456
			c-2.494-3.016-5.696-5.299-9.631-6.58c-2.292,1.345-4.947,2.129-7.791,2.129c-2.857,0-5.527-0.792-7.826-2.149
			c-7.347,2.302-12.55,7.888-15.278,15.2C-0.311,46.905,2.757,51.374,6.972,52.484z M44.95,35.346
			c5.732,0,10.378,4.646,10.378,10.38c0,5.732-4.646,10.379-10.378,10.379s-10.379-4.646-10.379-10.379
			C34.572,39.992,39.217,35.346,44.95,35.346z"/>
		<path d="M39.138,51.036c0.365,0.402,0.866,0.604,1.37,0.604c0.446,0,0.896-0.16,1.251-0.485l3.19-2.916l3.189,2.916
			c0.356,0.325,0.805,0.485,1.251,0.485c0.502,0,1.003-0.203,1.37-0.604c0.691-0.755,0.638-1.93-0.118-2.621l-2.943-2.691
			l2.943-2.691c0.756-0.691,0.809-1.864,0.118-2.621c-0.691-0.757-1.864-0.808-2.621-0.118l-3.189,2.918l-3.19-2.918
			c-0.757-0.691-1.929-0.638-2.621,0.118c-0.691,0.757-0.639,1.93,0.118,2.621l2.944,2.691l-2.944,2.691
			C38.5,49.106,38.448,50.281,39.138,51.036z"/>
	</g>
</g>
</svg>